<?xml version="1.0" encoding="utf-8"?>
<svg xmlns="http://www.w3.org/2000/svg" xmlns:xlink="http://www.w3.org/1999/xlink">
  <symbol id="icon-ai" viewBox="0 0 1024 1024">
    <path fill="red" d="M910.9 958.5H278.3c-29.9 0-54.2-24.3-54.2-54.2v-787c0-29.9 24.3-54.2 54.2-54.2h491.3c10 0 18.1 8.1 18.1 18.1v135.6H947c10 0 18.1 8.1 18.1 18.1v669.4c0 29.8-24.3 54.2-54.2 54.2zM278.3 99.3c-10 0-18.1 8.1-18.1 18.1v786.9c0 10 8.1 18.1 18.1 18.1h632.6c10 0 18.1-8.1 18.1-18.1V252.9H769.5c-10 0-18.1-8.1-18.1-18.1V99.3H278.3z"></path>
    <path fill="red" d="M947.4 253H769.9c-10 0-18.1-8.1-18.1-18.1V81.2c0-7.1 4.1-13.5 10.6-16.4 6.4-2.9 14-1.9 19.3 2.8L801.9 85c0.2 0.1 0.3 0.3 0.5 0.4l156.9 135.8c5.7 4.9 7.7 12.9 5.1 20-2.7 7.1-9.4 11.8-17 11.8zM788 216.8h111l-111-96.1v96.1zM664.5 781.5H79.4c-11.4 0-20.7-9.3-20.7-20.7V490.6c0-11.4 9.3-20.7 20.7-20.7h585.2c11.4 0 20.7 9.3 20.7 20.7v270.2c-0.1 11.4-9.4 20.7-20.8 20.7z"></path>
    <path d="M355.4 677.5H288l-14.6 53.4h-42.2L297.8 523h48.9l66.9 207.9H370l-14.6-53.4z m-9-32.3l-6.2-22.8c-6.5-21.6-12.1-45.5-18.3-68h-1.1c-5.3 22.8-11.5 46.4-17.7 68l-6.2 22.8h49.5zM438 522.9h41.6v207.9H438V522.9z" fill="blue"></path>
  </symbol>
  <symbol id="icon-gif" viewBox="0 0 1024 1024">
    <path fill="yellow" d="M910.9 958.5H278.3c-29.9 0-54.2-24.3-54.2-54.2v-787c0-29.9 24.3-54.2 54.2-54.2h491.3c10 0 18.1 8.1 18.1 18.1v135.6H947c10 0 18.1 8.1 18.1 18.1v669.4c0 29.8-24.3 54.2-54.2 54.2zM278.3 99.3c-10 0-18.1 8.1-18.1 18.1v786.9c0 10 8.1 18.1 18.1 18.1h632.6c10 0 18.1-8.1 18.1-18.1V252.9H769.5c-10 0-18.1-8.1-18.1-18.1V99.3H278.3z" data-spm-anchor-id="a313x.7781069.1998910419.i0"></path>
    <path fill="yellow" d="M947.4 253H769.9c-10 0-18.1-8.1-18.1-18.1V81.2c0-7.1 4.1-13.5 10.6-16.4 6.4-2.9 14-1.9 19.3 2.8L801.9 85c0.2 0.1 0.3 0.3 0.5 0.4l156.9 135.8c5.7 4.9 7.7 12.9 5.1 20-2.7 7.1-9.4 11.8-17 11.8zM788 216.8h111l-111-96.1v96.1zM664.5 781.5H79.4c-11.4 0-20.7-9.3-20.7-20.7V490.6c0-11.4 9.3-20.7 20.7-20.7h585.2c11.4 0 20.7 9.3 20.7 20.7v270.2c-0.1 11.4-9.4 20.7-20.8 20.7z"></path>
    <path fill="red" d="M149 628.5c0-68.6 44.4-108.8 99.8-108.8 30.1 0 50.9 12.9 64.4 26.7L291 572.8c-10.1-9.8-21.9-17.4-40.7-17.4-34.6 0-58.7 27-58.7 71.7 0 45.2 20.8 72.5 61.5 72.5 10.1 0 20.2-2.8 26.1-7.9v-41h-36.8v-34h73.9v93.9c-14.1 13.8-38.5 25-67.4 25-56.9 0-99.9-37.6-99.9-107.1zM360.9 523.7h41.6v207.9h-41.6V523.7zM453.6 523.7h128.1v34.6h-86.5v54.2h73.9v34.8h-73.9v84.3h-41.6V523.7z"></path>
  </symbol>
</svg>